<svg xmlns="http://www.w3.org/2000/svg" xmlns:xlink="http://www.w3.org/1999/xlink" width="90.695" height="131.702" viewBox="0 0 90.695 131.702">
  <defs>
    <linearGradient id="linear-gradient" x1="0.5" x2="0.5" y2="1" gradientUnits="objectBoundingBox">
      <stop offset="0" stop-color="#facf46"/>
      <stop offset="0.414" stop-color="#fc9b26"/>
      <stop offset="1" stop-color="#ea336f"/>
    </linearGradient>
  </defs>
  <g id="HG-logo" transform="translate(-255.305 -261.377)">
    <path id="Path_7" data-name="Path 7" d="M0,0S8.936-4.252,12.316.387,13.723,21,13.723,21H0Z" transform="translate(265.724 286.209) rotate(-59)" fill="#bbbcc0"/>
    <path id="Path_8" data-name="Path 8" d="M0,0S7.97-3,12,.387,13.372,21,13.372,21H0Z" transform="translate(288.724 274.209) rotate(-59)" fill="#bbbcc0"/>
    <path id="Path_9" data-name="Path 9" d="M0,21s7.459,3.132,11.225-.257S12.492,0,12.492,0H0Z" transform="translate(282.207 358.181) rotate(59)" fill="#bbbcc0"/>
    <path id="Path_10" data-name="Path 10" d="M0,21s7.446,3.132,11.2-.257S12.47,0,12.47,0H0Z" transform="translate(307.219 370.201) rotate(59)" fill="#bbbcc0"/>
    <path id="Union_1" data-name="Union 1" d="M30.574,121.9A17.644,17.644,0,0,1,26,111.822V75.884l-12.31-6.4c.12,17.183.3,33.873.457,41.622a6.522,6.522,0,0,0,1.1,3.677s-6.865-3.064-10.911-6.5S0,101.2,0,101.2V26.312a18.014,18.014,0,0,1,4.5-7.479c3.218-3.065,10.668-6.326,11.237-6.572-.217.107-1.4.886-1.923,5.327-.261,2.22-.293,17.8-.216,35.917L26,60.812V17.146s.288-6.438,4.278-11.03S40.651,0,40.651,0l.2,126.778A18.06,18.06,0,0,1,30.574,121.9ZM15.773,12.246l-.035.015A.284.284,0,0,1,15.773,12.246Z" transform="translate(255.305 263.894)" fill="url(#linear-gradient)"/>
    <path id="Union_2" data-name="Union 2" d="M2.207,115.234C1.972,111.488,1.852,8.485,1.715,5.183A11.225,11.225,0,0,0-.085-.426L14.5,7.119,38.881,18.49l0,.008.008,0s2.633,2.253,3.408,10.436a40.39,40.39,0,0,1-.613,13.239,15.445,15.445,0,0,1-5.027,5.272,37.873,37.873,0,0,1-7.969,3.677l-.75-22.287L15.021,22.811l-.26,75.618,13.8-7.651v-17.1l-6.85,3.555V62.153l21-11.278V89.491s-.153,8.073-5.4,11.262q-.158.1-.322.186l.014.026-23.615,13.09L13.359,114l-12.987,7A7.68,7.68,0,0,0,2.207,115.234Z" transform="translate(303.287 266.755)" fill="#0081cb"/>
  </g>
</svg>
